<svg width="50" height="50" viewBox="0 0 50 50" fill="none" xmlns="http://www.w3.org/2000/svg">
<path d="M0 16.0659C0 7.19296 7.19295 0 16.0659 0H33.9339C42.8068 0 49.9998 7.19295 49.9998 16.0659V33.9339C49.9998 42.8068 42.8069 49.9998 33.9339 49.9998H16.0659C7.19296 49.9998 0 42.8069 0 33.9339V16.0659Z" fill="white" fill-opacity="0.2"/>
<path d="M22.8504 28.6458C22.7574 28.2853 22.5695 27.9563 22.3062 27.693C22.043 27.4298 21.714 27.2419 21.3535 27.1489L14.9629 25.501C14.8538 25.47 14.7579 25.4044 14.6895 25.3139C14.6212 25.2235 14.5842 25.1133 14.5842 24.9999C14.5842 24.8866 14.6212 24.7764 14.6895 24.6859C14.7579 24.5955 14.8538 24.5298 14.9629 24.4989L21.3535 22.8499C21.7138 22.757 22.0427 22.5693 22.306 22.3062C22.5692 22.0432 22.7572 21.7144 22.8504 21.3541L24.4983 14.9635C24.5289 14.854 24.5945 14.7576 24.6851 14.6889C24.7756 14.6202 24.8862 14.583 24.9998 14.583C25.1135 14.583 25.224 14.6202 25.3146 14.6889C25.4052 14.7576 25.4708 14.854 25.5014 14.9635L27.1483 21.3541C27.2413 21.7146 27.4292 22.0436 27.6924 22.3068C27.9557 22.5701 28.2847 22.758 28.6451 22.851L35.0358 24.4978C35.1457 24.5282 35.2426 24.5937 35.3116 24.6844C35.3807 24.7751 35.4181 24.8859 35.4181 24.9999C35.4181 25.1139 35.3807 25.2248 35.3116 25.3155C35.2426 25.4062 35.1457 25.4717 35.0358 25.502L28.6451 27.1489C28.2847 27.2419 27.9557 27.4298 27.6924 27.693C27.4292 27.9563 27.2413 28.2853 27.1483 28.6458L25.5004 35.0364C25.4697 35.1459 25.4041 35.2423 25.3136 35.311C25.223 35.3797 25.1125 35.4169 24.9988 35.4169C24.8851 35.4169 24.7746 35.3797 24.684 35.311C24.5935 35.2423 24.5279 35.1459 24.4972 35.0364L22.8504 28.6458Z" stroke="white" stroke-width="2.07479" stroke-linecap="round" stroke-linejoin="round"/>
<path d="M33.333 15.6249V19.7915" stroke="white" stroke-width="2.07479" stroke-linecap="round" stroke-linejoin="round"/>
<path d="M35.4159 17.7083H31.2493" stroke="white" stroke-width="2.07479" stroke-linecap="round" stroke-linejoin="round"/>
<path d="M16.666 30.2083V32.2916" stroke="white" stroke-width="2.07479" stroke-linecap="round" stroke-linejoin="round"/>
<path d="M17.708 31.2499H15.6246" stroke="white" stroke-width="2.07479" stroke-linecap="round" stroke-linejoin="round"/>
</svg>
