<svg width="14" height="14" viewBox="0 0 14 14" fill="none" xmlns="http://www.w3.org/2000/svg">
<g clip-path="url(#clip0_2074_3038)">
<path d="M13.1152 7C13.1152 10.3783 10.3754 13.1182 6.99707 13.1182C3.61738 13.1182 0.878906 10.3797 0.878906 7C0.878906 3.62031 3.61738 0.881836 6.99707 0.881836C10.3754 0.881836 13.1152 3.62168 13.1152 7Z" fill="white"/>
<path d="M4.34375 7.57461C5.72598 5.87656 7.04258 4.26055 8.35918 2.64453C8.38652 2.65547 8.41387 2.66504 8.43984 2.67598C8.34004 3.33359 8.24023 3.99121 8.1418 4.64883C8.06797 5.13691 7.99961 5.62773 7.91895 6.11445C7.88477 6.31953 7.95176 6.39199 8.1623 6.38652C8.62578 6.37422 9.08926 6.38242 9.65391 6.38242C8.36875 8.08457 7.13281 9.71973 5.89687 11.3562C5.87637 11.3453 5.85586 11.3357 5.83535 11.3262C6.00625 10.1764 6.16758 9.0252 6.35762 7.87812C6.40137 7.61289 6.33164 7.56367 6.09102 7.56914C5.54141 7.58281 4.9918 7.57461 4.34375 7.57461Z" fill="#6A7282"/>
</g>
<rect x="0.5" y="0.5" width="13" height="13" rx="6.5" stroke="#6A7282"/>
<defs>
<clipPath id="clip0_2074_3038">
<rect width="14" height="14" rx="7" fill="white"/>
</clipPath>
</defs>
</svg>
